<svg width="269" height="250" viewBox="0 0 269 250" fill="none" xmlns="http://www.w3.org/2000/svg">
<path d="M237.5 146.875C237.5 144.389 236.512 142.004 234.754 140.246C232.996 138.488 230.611 137.5 228.125 137.5H190.625C188.139 137.5 185.754 138.488 183.996 140.246C182.238 142.004 181.25 144.389 181.25 146.875V231.25H162.5V28.125C162.5 19.025 162.475 13.125 161.9 8.8C161.35 4.7375 160.462 3.4625 159.75 2.75C159.037 2.0375 157.762 1.15 153.7 0.600001C149.362 0.0250012 143.475 0 134.375 0C125.275 0 119.375 0.0250012 115.05 0.600001C110.988 1.15 109.713 2.0375 109 2.75C108.288 3.4625 107.4 4.7375 106.85 8.8C106.275 13.1375 106.25 19.025 106.25 28.125V231.25H87.5V84.375C87.5 81.8886 86.5123 79.504 84.7541 77.7459C82.996 75.9877 80.6114 75 78.125 75H40.625C38.1386 75 35.754 75.9877 33.9959 77.7459C32.2377 79.504 31.25 81.8886 31.25 84.375V231.25H9.375C6.8886 231.25 4.50403 232.238 2.74587 233.996C0.987721 235.754 0 238.139 0 240.625C0 243.111 0.987721 245.496 2.74587 247.254C4.50403 249.012 6.8886 250 9.375 250H259.375C261.861 250 264.246 249.012 266.004 247.254C267.762 245.496 268.75 243.111 268.75 240.625C268.75 238.139 267.762 235.754 266.004 233.996C264.246 232.238 261.861 231.25 259.375 231.25H237.5V146.875Z" fill="#F8F8F8"/>
</svg>
