<svg width="188" height="188" viewBox="0 0 188 188" fill="none" xmlns="http://www.w3.org/2000/svg">
<path d="M76 182C76 183.591 75.3679 185.117 74.2426 186.243C73.1174 187.368 71.5913 188 70 188H14C10.287 188 6.72602 186.525 4.10051 183.899C1.475 181.274 0 177.713 0 174V14C0 10.287 1.475 6.72602 4.10051 4.10051C6.72602 1.475 10.287 0 14 0H70C71.5913 0 73.1174 0.63214 74.2426 1.75736C75.3679 2.88258 76 4.4087 76 6C76 7.5913 75.3679 9.11742 74.2426 10.2426C73.1174 11.3679 71.5913 12 70 12H14C13.4696 12 12.9609 12.2107 12.5858 12.5858C12.2107 12.9609 12 13.4696 12 14V174C12 174.53 12.2107 175.039 12.5858 175.414C12.9609 175.789 13.4696 176 14 176H70C71.5913 176 73.1174 176.632 74.2426 177.757C75.3679 178.883 76 180.409 76 182ZM186.24 89.76L146.24 49.76C145.103 48.7002 143.598 48.1232 142.044 48.1506C140.489 48.178 139.006 48.8077 137.907 49.907C136.808 51.0063 136.178 52.4894 136.151 54.0438C136.123 55.5982 136.7 57.1026 137.76 58.24L167.51 88H70C68.4087 88 66.8826 88.6321 65.7574 89.7574C64.6321 90.8826 64 92.4087 64 94C64 95.5913 64.6321 97.1174 65.7574 98.2426C66.8826 99.3679 68.4087 100 70 100H167.51L137.76 129.76C137.171 130.309 136.698 130.972 136.37 131.708C136.042 132.444 135.865 133.238 135.851 134.044C135.837 134.849 135.985 135.65 136.287 136.397C136.589 137.144 137.038 137.823 137.608 138.392C138.177 138.962 138.856 139.411 139.603 139.713C140.35 140.015 141.151 140.163 141.956 140.149C142.762 140.135 143.556 139.958 144.292 139.63C145.028 139.302 145.691 138.829 146.24 138.24L186.24 98.24C187.364 97.115 187.995 95.59 187.995 94C187.995 92.41 187.364 90.885 186.24 89.76Z" fill="#121212"/>
</svg>
