<svg width="200" height="193" viewBox="0 0 200 193" fill="none" xmlns="http://www.w3.org/2000/svg">
<path d="M199.376 186.014C182.856 157.454 156.376 137.954 125.696 130.924C140.274 124.951 152.326 114.101 159.793 100.228C167.26 86.3555 169.678 70.3203 166.635 54.8625C163.591 39.4046 155.274 25.4833 143.105 15.4769C130.936 5.47051 115.67 0 99.9157 0C84.161 0 68.8952 5.47051 56.7263 15.4769C44.5574 25.4833 36.2406 39.4046 33.1968 54.8625C30.153 70.3203 32.5711 86.3555 40.038 100.228C47.5048 114.101 59.5571 124.951 74.1357 130.924C43.4957 137.924 16.9757 157.454 0.455671 186.014C-0.0225427 186.928 -0.129049 187.991 0.158401 188.982C0.445851 189.973 1.10502 190.815 1.99823 191.331C2.89143 191.847 3.94958 191.998 4.95165 191.753C5.95372 191.507 6.82219 190.884 7.37567 190.014C26.9157 156.204 61.5357 136.014 99.9157 136.014C138.296 136.014 172.916 156.204 192.456 190.014C192.806 190.621 193.311 191.126 193.918 191.477C194.525 191.828 195.214 192.013 195.916 192.014C196.619 192.016 197.309 191.829 197.916 191.474C198.833 190.943 199.501 190.069 199.775 189.046C200.049 188.022 199.905 186.932 199.376 186.014ZM39.9157 68.0137C39.9157 56.1468 43.4346 44.5464 50.0275 34.6795C56.6204 24.8125 65.9911 17.1222 76.9547 12.5809C87.9182 8.03967 99.9822 6.85146 111.621 9.16658C123.26 11.4817 133.951 17.1961 142.342 25.5873C150.733 33.9784 156.448 44.6694 158.763 56.3083C161.078 67.9471 159.89 80.0111 155.348 90.9747C150.807 101.938 143.117 111.309 133.25 117.902C123.383 124.495 111.783 128.014 99.9157 128.014C84.0084 127.995 68.7579 121.668 57.5097 110.42C46.2616 99.1715 39.9342 83.921 39.9157 68.0137Z" fill="#121212"/>
</svg>
